<svg width="120" height="120" viewBox="0 0 120 120" xmlns="http://www.w3.org/2000/svg" role="img" aria-label="Tiltometer">
  <rect x="0" y="0" width="120" height="120" rx="26" fill="#2257d0"/>
  <path transform="translate(23,17) scale(3.08)" d="M12 2 C12 2 4 9 4 14 a4 4 0 0 0 7 3 c0 2 -1 3 -2.5 4.5 h7 c-1.5 -1.5 -2.5 -2.5 -2.5 -4.5 a4 4 0 0 0 7 -3 C20 9 12 2 12 2 Z" fill="#ffffff"/>
  <line x1="60" y1="60" x2="83" y2="31" stroke="#ffd24d" stroke-width="5" stroke-linecap="round"/>
  <circle cx="60" cy="60" r="5" fill="#2257d0"/>
  <circle cx="60" cy="60" r="2.5" fill="#ffd24d"/>
</svg>
